<?xml version="1.0" standalone="no"?>
<!DOCTYPE svg PUBLIC "-//W3C//DTD SVG 20010904//EN"
 "http://www.w3.org/TR/2001/REC-SVG-20010904/DTD/svg10.dtd">
<svg version="1.0" xmlns="http://www.w3.org/2000/svg"
 width="512.000000pt" height="512.000000pt" viewBox="0 0 512.000000 512.000000"
 preserveAspectRatio="xMidYMid meet">

<g transform="translate(0.000000,512.000000) scale(0.100000,-0.100000)"
fill="#000000" stroke="none">
<path d="M599 4741 c-46 -15 -66 -30 -83 -65 -15 -31 -16 -150 -16 -1298 l0
-1264 -250 -672 -250 -673 0 -145 c0 -165 10 -203 64 -232 29 -16 118 -17
1161 -20 622 -1 1145 0 1163 3 66 12 94 81 49 123 l-23 22 -1132 0 -1132 0 0
80 0 80 2410 0 2410 0 0 -80 0 -80 -1133 0 -1134 0 -21 -23 c-44 -46 -17 -110
50 -122 18 -3 542 -4 1163 -3 1043 3 1132 4 1161 20 54 29 64 67 64 231 l0
146 -250 672 -250 673 0 1264 c0 1400 4 1313 -64 1350 -29 16 -144 17 -1621
20 -874 1 -1605 0 -1623 -3 -67 -12 -94 -78 -52 -123 l21 -22 1594 0 1595 0 0
-1210 0 -1210 -1910 0 -1910 0 0 1210 0 1210 174 0 175 0 20 26 c12 15 21 33
21 40 0 29 -25 64 -53 74 -34 11 -349 12 -388 1z m4112 -3301 c120 -322 218
-591 219 -597 0 -10 -480 -13 -2370 -13 -1512 0 -2370 3 -2370 10 0 7 360 983
429 1163 l11 27 1931 -2 1932 -3 218 -585z"/>
<path d="M774 1869 c-17 -5 -38 -17 -46 -26 -23 -26 -280 -723 -280 -759 0
-42 17 -71 52 -89 26 -13 268 -15 2062 -15 2001 0 2034 0 2065 20 42 25 54 70
36 130 -7 25 -68 193 -136 374 -102 272 -128 333 -151 350 l-27 21 -1772 2
c-1027 1 -1785 -2 -1803 -8z m416 -151 c-1 -7 -13 -58 -28 -113 l-27 -100
-188 -3 c-146 -2 -187 0 -187 10 0 12 66 194 76 210 3 5 84 8 180 8 133 0 174
-3 174 -12z m515 -30 c-4 -24 -12 -74 -18 -113 l-12 -70 -193 -3 c-181 -2
-193 -1 -188 15 2 10 10 38 16 63 6 25 18 69 26 98 l15 52 180 0 180 0 -6 -42z
m516 -68 c-1 -58 -5 -108 -8 -112 -7 -12 -383 -10 -383 2 0 21 31 204 36 212
3 5 85 7 182 6 l177 -3 -4 -105z m523 73 c3 -21 6 -73 6 -115 l0 -78 -190 0
-190 0 0 78 c0 42 3 94 6 115 l7 37 177 0 177 0 7 -37z m510 29 c5 -8 36 -191
36 -212 0 -7 -65 -10 -192 -8 l-193 3 -6 105 c-3 58 -4 108 -2 113 6 10 351 9
357 -1z m530 -44 c8 -29 20 -73 26 -98 6 -25 14 -53 16 -63 5 -16 -7 -17 -188
-15 l-193 3 -12 70 c-6 39 -14 89 -18 113 l-6 42 180 0 180 0 15 -52z m538
-53 c21 -55 38 -106 38 -113 0 -10 -41 -12 -187 -10 l-188 3 -27 100 c-15 55
-27 106 -28 113 0 10 39 12 177 10 l177 -3 38 -100z m-3232 -281 c0 -3 -12
-53 -27 -110 l-27 -104 -208 0 c-114 0 -208 3 -208 8 0 4 17 53 37 109 l38
103 198 0 c108 0 197 -3 197 -6z m557 -21 c-3 -16 -11 -65 -18 -110 l-12 -83
-215 0 c-188 0 -213 2 -208 15 3 9 13 44 21 78 9 34 21 77 26 95 l11 32 200 0
201 0 -6 -27z m559 -4 c-3 -17 -6 -67 -6 -110 l0 -79 -215 0 c-143 0 -215 4
-215 10 0 6 7 56 17 110 l16 100 205 0 205 0 -7 -31z m558 -6 c3 -21 6 -71 6
-110 l0 -73 -210 0 -210 0 0 73 c0 39 3 89 6 110 l7 37 197 0 197 0 7 -37z
m569 -63 c10 -54 17 -104 17 -110 0 -6 -72 -10 -215 -10 l-215 0 0 79 c0 43
-3 93 -6 110 l-6 31 204 0 205 0 16 -100z m546 68 c5 -18 17 -61 26 -95 8 -34
18 -69 21 -78 5 -13 -20 -15 -208 -15 l-215 0 -12 83 c-7 45 -15 94 -18 110
l-5 27 200 0 200 0 11 -32z m584 -71 c20 -56 37 -105 37 -109 0 -5 -94 -8
-208 -8 l-208 0 -27 104 c-15 57 -27 107 -27 110 0 3 89 6 198 6 l197 0 38
-103z"/>
<path d="M872 4439 c-20 -6 -40 -22 -52 -42 -19 -31 -20 -57 -20 -1010 0
-1051 -2 -1019 49 -1047 27 -14 3395 -14 3422 0 51 28 49 -4 49 1047 0 951 -1
979 -20 1010 -13 21 -31 35 -57 42 -50 14 -3323 14 -3371 0z m3298 -1049 l0
-910 -1610 0 -1610 0 0 910 0 910 1610 0 1610 0 0 -910z"/>
</g>
</svg>
