<?xml version="1.0" standalone="no"?>
<!DOCTYPE svg PUBLIC "-//W3C//DTD SVG 20010904//EN"
 "http://www.w3.org/TR/2001/REC-SVG-20010904/DTD/svg10.dtd">
<svg version="1.0" xmlns="http://www.w3.org/2000/svg"
 width="512.000000pt" height="512.000000pt" viewBox="0 0 512.000000 512.000000"
 preserveAspectRatio="xMidYMid meet">

<g transform="translate(0.000000,512.000000) scale(0.100000,-0.100000)"
fill="#000000" stroke="none">
<path d="M337 5102 c-23 -25 -23 -124 -1 -146 22 -23 60 -20 78 6 23 33 21
113 -4 138 -25 25 -52 26 -73 2z"/>
<path d="M1233 5099 c-74 -23 -134 -67 -185 -134 -64 -84 -70 -114 -79 -365
-5 -124 -11 -257 -15 -297 -5 -59 -2 -80 15 -119 12 -25 21 -48 21 -50 0 -2
-55 -4 -123 -4 -184 0 -274 -29 -369 -118 -73 -68 -115 -149 -133 -254 l-6
-38 -54 0 c-60 0 -85 -16 -85 -55 0 -13 11 -31 24 -42 14 -10 44 -61 67 -113
l42 -95 83 -695 c46 -382 86 -708 90 -725 9 -44 49 -119 84 -158 l30 -35 -35
-26 c-19 -15 -46 -46 -59 -69 -30 -51 -276 -1023 -276 -1089 0 -89 70 -187
163 -228 l47 -21 0 -162 c0 -131 3 -167 16 -185 15 -22 19 -22 238 -22 176 0
226 3 242 14 17 13 19 30 22 185 l3 171 284 0 c282 0 284 0 299 22 21 30 20
44 -4 68 -20 20 -33 20 -558 20 -518 0 -538 1 -570 20 -42 26 -72 76 -72 120
0 19 56 257 124 528 131 522 132 523 198 558 22 11 102 14 423 14 382 0 396 1
415 20 25 25 26 52 2 73 -17 15 -57 17 -364 17 -373 0 -393 2 -462 55 -18 14
-44 46 -59 72 -23 43 -30 85 -66 387 -23 186 -41 344 -41 352 0 12 106 14 680
14 l680 0 0 -29 c0 -24 -8 -34 -46 -56 -32 -19 -52 -39 -65 -68 -18 -40 -19
-84 -19 -1067 l0 -1025 23 -40 c14 -26 37 -48 67 -62 40 -21 58 -23 197 -23
l153 0 0 -160 c0 -147 1 -160 19 -170 12 -6 96 -10 205 -10 241 0 226 -13 226
190 l0 150 675 0 675 0 0 -154 c0 -127 3 -157 16 -170 13 -13 46 -16 205 -16
245 0 229 -13 229 190 l0 150 148 0 c133 0 152 2 192 22 25 13 55 38 68 57
l22 34 -2 1048 c-3 1040 -3 1048 -24 1076 -11 15 -40 38 -64 51 l-44 22 -1373
0 -1373 0 0 24 c0 13 13 136 30 272 16 137 30 257 30 267 0 15 11 17 103 17
78 0 112 -5 143 -19 49 -22 84 -74 84 -125 0 -56 15 -76 55 -76 46 0 59 26 52
98 -11 104 -96 199 -197 221 -28 6 -89 11 -135 11 -98 0 -91 -11 -75 121 18
143 19 149 38 149 28 0 62 29 62 54 0 33 -31 56 -73 56 -34 0 -36 2 -42 38
-32 188 -164 328 -345 362 -29 5 -113 10 -186 10 l-133 0 21 36 c13 23 22 59
26 103 5 80 -20 149 -74 202 -34 33 -34 34 -34 121 l0 88 349 0 349 0 11 -29
c16 -38 68 -86 110 -100 22 -7 141 -11 348 -11 260 0 320 3 350 15 48 20 71
41 94 88 l19 37 375 0 375 0 0 -673 c0 -640 1 -675 18 -690 24 -22 55 -21 75
1 16 17 17 82 17 725 0 694 0 707 -20 727 -19 19 -33 20 -430 20 l-410 0 0
110 0 110 413 -1 c289 0 422 -4 444 -12 60 -22 117 -72 148 -128 l30 -54 5
-908 c5 -885 6 -909 24 -923 27 -19 42 -18 66 6 20 20 20 33 20 903 0 971 1
952 -61 1049 -35 54 -93 109 -141 134 -86 44 -67 44 -1393 43 -1224 0 -1262
-1 -1322 -20z m837 -199 l0 -110 -385 0 c-462 0 -425 12 -425 -138 l0 -98 -52
-1 c-29 0 -70 -7 -90 -16 l-38 -16 0 138 c0 134 1 140 31 199 33 66 84 114
146 137 30 11 119 14 426 14 l387 1 0 -110z m820 -50 c0 -147 -2 -162 -20
-180 -19 -19 -33 -20 -334 -20 -294 0 -315 1 -337 19 -23 19 -24 25 -27 180
l-3 161 360 0 361 0 0 -160z m-1583 -436 c48 -37 66 -77 61 -139 -15 -178
-262 -198 -308 -24 -20 75 31 165 106 189 43 14 104 2 141 -26z m505 -427 c91
-45 155 -130 172 -229 l7 -38 -761 0 c-622 0 -760 2 -760 13 0 33 32 117 59
154 39 54 91 93 154 115 48 16 93 18 562 15 l510 -2 57 -28z m205 -404 c-2
-16 -24 -193 -48 -395 l-43 -368 -698 0 c-643 0 -698 1 -698 17 0 9 -16 149
-35 312 -34 278 -38 299 -70 372 -19 42 -35 79 -35 83 0 3 367 6 816 6 l816 0
-5 -27z m1993 -2088 l0 -1045 -1042 0 c-955 0 -1043 1 -1060 17 -17 15 -18 60
-18 1026 0 926 1 1012 17 1029 15 17 61 18 1060 18 l1043 0 0 -1045z m761
1035 c19 -10 19 -33 19 -1035 0 -1002 0 -1025 -19 -1035 -13 -6 -137 -10 -335
-10 l-316 0 0 1045 0 1045 316 0 c198 0 322 -4 335 -10z m-3881 -2290 l0 -130
-150 0 -150 0 0 130 0 130 150 0 150 0 0 -130z m1670 -15 l0 -115 -120 0 -120
0 0 115 0 115 120 0 120 0 0 -115z m1800 0 l0 -115 -115 0 -115 0 0 115 0 115
115 0 115 0 0 -115z"/>
<path d="M2122 2308 c-17 -17 -17 -1609 0 -1626 9 -9 206 -12 824 -12 725 0
814 2 828 16 14 14 16 101 16 809 0 708 -2 795 -16 809 -14 14 -103 16 -828
16 -618 0 -815 -3 -824 -12z m1558 -813 l0 -715 -735 0 -735 0 0 715 0 715
735 0 735 0 0 -715z"/>
<path d="M4265 2284 c-23 -23 -15 -66 15 -81 31 -16 322 -18 350 -3 34 18 44
48 25 76 -15 24 -16 24 -195 24 -151 0 -181 -2 -195 -16z"/>
<path d="M4260 1859 c-17 -30 -8 -62 20 -76 31 -16 322 -18 350 -3 34 18 44
48 25 76 -15 24 -16 24 -200 24 -176 0 -185 -1 -195 -21z"/>
<path d="M4260 1441 c-13 -26 -13 -54 2 -69 8 -8 66 -12 195 -12 l183 0 16 25
c15 23 15 27 0 50 l-16 25 -185 0 c-172 0 -185 -1 -195 -19z"/>
<path d="M4365 1074 c-81 -44 -121 -117 -113 -205 17 -177 245 -242 366 -105
78 89 59 224 -41 293 -33 23 -52 28 -111 31 -51 2 -79 -2 -101 -14z m130 -98
c46 -20 69 -57 61 -101 -21 -109 -196 -97 -196 14 0 43 14 64 55 86 37 18 38
18 80 1z"/>
<path d="M127 4892 c-42 -46 -7 -92 71 -92 41 0 54 4 66 22 21 30 20 44 -4 68
-27 27 -110 28 -133 2z"/>
<path d="M486 4894 c-9 -8 -16 -26 -16 -39 0 -37 26 -55 79 -55 57 0 84 17 84
55 0 16 -8 34 -19 42 -25 18 -109 17 -128 -3z"/>
<path d="M336 4744 c-23 -23 -22 -116 2 -137 25 -22 48 -21 72 3 25 25 27 95
4 128 -18 26 -56 29 -78 6z"/>
<path d="M4716 3807 c-27 -20 -34 -108 -12 -142 18 -27 63 -34 84 -13 7 7 12
39 12 74 0 54 -3 65 -22 78 -27 19 -39 20 -62 3z"/>
<path d="M4512 3603 c-25 -10 -34 -53 -17 -79 13 -20 24 -24 66 -24 28 0 59 5
70 10 27 15 25 64 -3 84 -21 15 -88 20 -116 9z"/>
<path d="M4860 3590 c-24 -24 -25 -38 -4 -68 12 -18 25 -22 69 -22 60 0 85 16
85 55 0 33 -36 55 -87 55 -30 0 -49 -6 -63 -20z"/>
<path d="M4710 3440 c-25 -25 -27 -95 -4 -128 18 -26 56 -29 78 -6 23 23 22
116 -2 137 -25 22 -48 21 -72 -3z"/>
<path d="M3774 3108 c-65 -31 -41 -128 31 -128 64 0 90 79 39 119 -30 23 -39
24 -70 9z"/>
<path d="M2397 2860 c-18 -15 -27 -31 -27 -51 0 -65 80 -93 120 -42 50 64 -29
143 -93 93z"/>
<path d="M1173 1459 c-107 -14 -222 -100 -273 -204 -22 -43 -25 -64 -25 -155
0 -127 19 -175 105 -261 71 -72 143 -101 250 -101 141 0 252 67 321 194 33 60
34 67 34 168 0 101 -1 108 -34 168 -78 143 -215 213 -378 191z m7 -359 c0
-198 -3 -250 -13 -250 -7 0 -37 15 -67 33 -89 53 -140 158 -124 257 11 67 62
141 124 177 30 18 60 33 67 33 10 0 13 -52 13 -250z m178 219 c167 -95 167
-343 0 -438 -29 -17 -59 -31 -65 -31 -10 0 -13 57 -13 250 0 193 3 250 13 250
6 0 36 -14 65 -31z"/>
</g>
</svg>
