<?xml version="1.0" standalone="no"?>
<!DOCTYPE svg PUBLIC "-//W3C//DTD SVG 20010904//EN"
 "http://www.w3.org/TR/2001/REC-SVG-20010904/DTD/svg10.dtd">
<svg version="1.0" xmlns="http://www.w3.org/2000/svg"
 width="512.000000pt" height="512.000000pt" viewBox="0 0 512.000000 512.000000"
 preserveAspectRatio="xMidYMid meet">

<g transform="translate(0.000000,512.000000) scale(0.100000,-0.100000)"
fill="#000000" stroke="none">
<path d="M1337 5109 c-130 -31 -231 -140 -257 -278 -14 -74 -14 -4468 0 -4542
22 -115 94 -208 198 -257 l57 -27 1225 0 1225 0 57 27 c103 48 176 144 198
257 14 74 14 4468 0 4542 -22 113 -95 209 -198 257 l-57 27 -1205 2 c-683 0
-1221 -3 -1243 -8z m1617 -255 c19 -18 19 -20 6 -45 -10 -18 -25 -19 -400 -19
-379 0 -390 1 -400 20 -8 14 -8 26 0 40 10 19 21 20 395 20 335 0 386 -2 399
-16z m856 -2249 l0 -1965 -1250 0 -1250 0 0 1965 0 1965 1250 0 1250 0 0
-1965z m-1200 -2095 c41 -11 94 -61 109 -103 48 -127 -70 -262 -199 -227 -103
28 -162 149 -116 238 42 80 122 116 206 92z"/>
<path d="M2370 3315 c-241 -38 -476 -149 -650 -304 l-55 -49 64 -66 64 -65 50
44 c393 354 1010 359 1420 12 l64 -55 64 65 64 64 -40 36 c-291 259 -676 376
-1045 318z"/>
<path d="M2397 3000 c-142 -25 -302 -96 -414 -183 -103 -80 -102 -73 -29 -146
l64 -64 52 45 c66 58 186 121 280 148 244 69 521 9 707 -154 l44 -39 64 63
c74 74 75 67 -28 147 -83 64 -208 128 -312 158 -75 23 -114 28 -235 31 -80 1
-167 -1 -193 -6z"/>
<path d="M2485 2683 c-122 -19 -245 -73 -323 -140 l-43 -38 65 -64 64 -64 39
30 c82 65 165 93 273 93 108 0 191 -28 273 -93 l39 -30 64 64 65 64 -43 38
c-57 49 -158 101 -235 121 -66 17 -189 27 -238 19z"/>
</g>
</svg>
